0
SECTION
2
HEADER
9
$INSUNITS
70
4
9
$ACADVER
1
AC1014
9
$HANDSEED
5
FFFF
0
ENDSEC
0
SECTION
2
TABLES
0
TABLE
2
VPORT
5
8
100
AcDbSymbolTable
0
ENDTAB
0
TABLE
2
LTYPE
5
5
100
AcDbSymbolTable
0
LTYPE
5
14
100
AcDbSymbolTableRecord
100
AcDbLinetypeTableRecord
2
BYBLOCK
70
0
0
LTYPE
5
15
100
AcDbSymbolTableRecord
100
AcDbLinetypeTableRecord
2
BYLAYER
70
0
0
LTYPE
5
16
100
AcDbSymbolTableRecord
100
AcDbLinetypeTableRecord
2
DASHED
70
0
3
Dashed __ __ __ __ __ __ __ __ __ __ __ __ __ _
72
65
73
2
40
0.75
49
0.5
74
0
49
-0.25
74
0
0
ENDTAB
0
TABLE
2
LAYER
5
2
100
AcDbSymbolTable
70
3
0
LAYER
5
50
100
AcDbSymbolTableRecord
100
AcDbLayerTableRecord
2
1
70
0
62
7
6
DASHED
0
LAYER
5
51
100
AcDbSymbolTableRecord
100
AcDbLayerTableRecord
2
0
70
0
62
7
6
CONTINUOUS
0
ENDTAB
0
TABLE
2
STYLE
5
3
100
AcDbSymbolTable
70
1
0
STYLE
5
11
100
AcDbSymbolTableRecord
100
AcDbTextStyleTableRecord
2
STANDARD
70
0
0
ENDTAB
0
TABLE
2
VIEW
5
6
100
AcDbSymbolTable
70
0
0
ENDTAB
0
TABLE
2
UCS
5
7
100
AcDbSymbolTable
70
0
0
ENDTAB
0
TABLE
2
APPID
5
9
100
AcDbSymbolTable
70
2
0
APPID
5
12
100
AcDbSymbolTableRecord
100
AcDbRegAppTableRecord
2
ACAD
70
0
0
ENDTAB
0
TABLE
2
DIMSTYLE
5
A
100
AcDbSymbolTable
70
1
0
ENDTAB
0
TABLE
2
BLOCK_RECORD
5
1
100
AcDbSymbolTable
70
1
0
BLOCK_RECORD
5
1F
100
AcDbSymbolTableRecord
100
AcDbBlockTableRecord
2
*MODEL_SPACE
0
BLOCK_RECORD
5
1B
100
AcDbSymbolTableRecord
100
AcDbBlockTableRecord
2
*PAPER_SPACE
0
ENDTAB
0
ENDSEC
0
SECTION
2
BLOCKS
0
BLOCK
5
20
100
AcDbEntity
100
AcDbBlockBegin
2
*MODEL_SPACE
0
ENDBLK
5
21
100
AcDbEntity
100
AcDbBlockEnd
0
BLOCK
5
1C
100
AcDbEntity
100
AcDbBlockBegin
2
*PAPER_SPACE
0
ENDBLK
5
1D
100
AcDbEntity
100
AcDbBlockEnd
0
ENDSEC
0
SECTION
2
ENTITIES
0
LWPOLYLINE
5
100
100
AcDbEntity
8
0
100
AcDbPolyline
90
15
70
1
43
0.0
10
690.84317953314712
20
276.76597494881617
42
0.08514626751829657
10
690.27153304327476
20
280.09829716590275
10
685.55850426003178
20
293.43207913540942
42
0.23858322350678282
10
682.29423593244724
20
296.55097586655296
10
665.79328987711631
20
301.55096427285793
42
0.27665380521740723
10
660.80781170515843
20
300.30136563720004
10
648.80776592881841
20
288.30141141347559
42
0.66818001767655943
10
652.34328635195254
20
279.76586402059422
10
667.84324967781163
20
279.76586403361779
42
-0.41423307808031323
10
670.84324967367309
20
276.7656641451411
10
670.84178387847419
20
254.76646909066756
42
0.41421815867384298
10
673.84163106151868
20
251.76626920608277
10
684.67963129125383
20
251.76571715340521
10
687.84317953712377
20
251.76571715402378
42
0.41421356237309159
10
690.84317953653704
20
254.76571715461037
0
LWPOLYLINE
5
101
100
AcDbEntity
8
0
100
AcDbPolyline
90
17
70
1
43
0.0
10
680.84422331922519
20
285.44112151169185
10
680.84421123814604
20
283.09043478754
42
-0.34754048559243761
10
679.69035758332006
20
281.63092795138505
42
0.14227004539474608
10
677.26385018501514
20
280.25604385919115
42
-0.50514581501909528
10
674.87188685704223
20
280.5866907301027
42
0.27484100493608887
10
667.84324910005012
20
284.76589260896674
10
658.66783515436407
20
284.76589194342796
42
-0.34753926885415198
10
657.20832380760999
20
285.91973165354432
42
0.080083942963157906
10
656.59929337889662
20
287.3900599262077
42
-0.34754048559252487
10
656.81543936255525
20
289.23798291575292
10
659.87117910915617
20
292.29369934902877
42
-0.34754048559442685
10
661.71910374771664
20
292.5098312341608
42
0.42168547317929606
10
668.66470305500047
20
294.25071322076661
42
-0.34754048559438361
10
670.39610807859344
20
294.93172357740372
10
674.79140404567545
20
293.59987370334022
42
-0.34754127373245125
10
675.85358766536376
20
292.0723539045718
42
0.36482535584808384
10
679.69038056105262
20
286.90064118164366
42
-0.34754127373245197
0
LWPOLYLINE
5
102
100
AcDbEntity
8
0
100
AcDbPolyline
90
8
70
1
43
0.0
10
678.15117818000863
20
272.55307185037691
42
0.29225019893041126
10
683.53624279134863
20
272.55247334987536
42
-0.59245286707855394
10
685.84386200609515
20
271.28836477976682
10
685.84333895083955
20
262.24260562198782
42
-0.59244839087683776
10
683.53559031272107
20
260.978753223225
42
0.2922308602860319
10
678.15099531058536
20
260.97889799696532
42
-0.59244839139229932
10
675.84331463732656
20
262.24287449146607
10
675.84327801387326
20
271.2892234926685
42
-0.59250978169014368
0
CIRCLE
5
103
100
AcDbEntity
8
0
100
AcDbCircle
10
652.34328634775136
20
284.76586402059434
30
1.2659384651669825e-09
40
1.5999999999999659
210
3.2311742677853356e-24
220
0
230
1
0
CIRCLE
5
104
100
AcDbEntity
8
0
100
AcDbCircle
10
664.34333212409138
20
296.76581824431889
30
1.3509549035006785e-09
40
1.5999999999999659
210
3.2311742677853356e-24
220
0
230
1
0
CIRCLE
5
105
100
AcDbEntity
8
0
100
AcDbCircle
10
680.84325583019154
20
276.76575530170584
30
1.2602541232809017e-09
40
2.0999999999999375
210
3.2004011795207405e-24
220
0
230
1
0
CIRCLE
5
106
100
AcDbEntity
8
0
100
AcDbCircle
10
680.84317953629147
20
256.76575530156038
30
1.1695178159243369e-09
40
2.0999999999999375
210
3.2004011795207405e-24
220
0
230
1
0
CIRCLE
5
107
100
AcDbEntity
8
0
100
AcDbCircle
10
680.8442558239442
20
291.7657560605266
30
1.3283241173667193e-09
40
1.5999999999999659
210
3.2311742677853356e-24
220
0
230
1
0
ENDSEC
0
SECTION
2
OBJECTS
0
DICTIONARY
5
C
100
AcDbDictionary
3
ACAD_GROUP
350
D
3
ACAD_MLINESTYLE
350
17
0
DICTIONARY
5
D
100
AcDbDictionary
0
DICTIONARY
5
1A
330
C
100
AcDbDictionary
0
DICTIONARY
5
17
100
AcDbDictionary
0
ENDSEC
0
EOF
