0
SECTION
2
HEADER
9
$INSUNITS
70
4
9
$ACADVER
1
AC1014
9
$HANDSEED
5
FFFF
0
ENDSEC
0
SECTION
2
TABLES
0
TABLE
2
VPORT
5
8
100
AcDbSymbolTable
0
ENDTAB
0
TABLE
2
LTYPE
5
5
100
AcDbSymbolTable
0
LTYPE
5
14
100
AcDbSymbolTableRecord
100
AcDbLinetypeTableRecord
2
BYBLOCK
70
0
0
LTYPE
5
15
100
AcDbSymbolTableRecord
100
AcDbLinetypeTableRecord
2
BYLAYER
70
0
0
LTYPE
5
16
100
AcDbSymbolTableRecord
100
AcDbLinetypeTableRecord
2
DASHED
70
0
3
Dashed __ __ __ __ __ __ __ __ __ __ __ __ __ _
72
65
73
2
40
0.75
49
0.5
74
0
49
-0.25
74
0
0
ENDTAB
0
TABLE
2
LAYER
5
2
100
AcDbSymbolTable
70
3
0
LAYER
5
50
100
AcDbSymbolTableRecord
100
AcDbLayerTableRecord
2
1
70
0
62
7
6
DASHED
0
LAYER
5
51
100
AcDbSymbolTableRecord
100
AcDbLayerTableRecord
2
0
70
0
62
7
6
CONTINUOUS
0
ENDTAB
0
TABLE
2
STYLE
5
3
100
AcDbSymbolTable
70
1
0
STYLE
5
11
100
AcDbSymbolTableRecord
100
AcDbTextStyleTableRecord
2
STANDARD
70
0
0
ENDTAB
0
TABLE
2
VIEW
5
6
100
AcDbSymbolTable
70
0
0
ENDTAB
0
TABLE
2
UCS
5
7
100
AcDbSymbolTable
70
0
0
ENDTAB
0
TABLE
2
APPID
5
9
100
AcDbSymbolTable
70
2
0
APPID
5
12
100
AcDbSymbolTableRecord
100
AcDbRegAppTableRecord
2
ACAD
70
0
0
ENDTAB
0
TABLE
2
DIMSTYLE
5
A
100
AcDbSymbolTable
70
1
0
ENDTAB
0
TABLE
2
BLOCK_RECORD
5
1
100
AcDbSymbolTable
70
1
0
BLOCK_RECORD
5
1F
100
AcDbSymbolTableRecord
100
AcDbBlockTableRecord
2
*MODEL_SPACE
0
BLOCK_RECORD
5
1B
100
AcDbSymbolTableRecord
100
AcDbBlockTableRecord
2
*PAPER_SPACE
0
ENDTAB
0
ENDSEC
0
SECTION
2
BLOCKS
0
BLOCK
5
20
100
AcDbEntity
100
AcDbBlockBegin
2
*MODEL_SPACE
0
ENDBLK
5
21
100
AcDbEntity
100
AcDbBlockEnd
0
BLOCK
5
1C
100
AcDbEntity
100
AcDbBlockBegin
2
*PAPER_SPACE
0
ENDBLK
5
1D
100
AcDbEntity
100
AcDbBlockEnd
0
ENDSEC
0
SECTION
2
ENTITIES
0
LWPOLYLINE
5
100
100
AcDbEntity
8
0
100
AcDbPolyline
90
4
70
1
43
0.0
10
907.62324147968388
20
271.26483210771624
10
907.62316518329737
20
261.26483210129737
42
-0.99999999999999989
10
885.02316518395548
20
261.2650045311305
10
885.02324148034131
20
271.26500452255522
42
-0.99999999999999989
0
LWPOLYLINE
5
101
100
AcDbEntity
8
0
100
AcDbPolyline
90
4
70
1
43
0.0
10
882.42316327384424
20
255.76505572451305
42
1.0000000074505806
10
879.22316327393787
20
255.7650801393566
10
879.22308697755113
20
245.76508013965599
42
1.0000004603712338
10
882.42308697746864
20
245.76505719777501
0
LWPOLYLINE
5
102
100
AcDbEntity
8
0
100
AcDbPolyline
90
4
70
1
43
0.0
10
910.2231060511856
20
245.76486993203707
10
910.22318234758256
20
255.76487139362328
42
-0.99999999999999989
10
913.42318234748927
20
255.76484697877987
10
913.4231060511031
20
245.76484697899298
42
-0.99999954313915318
0
LWPOLYLINE
5
103
100
AcDbEntity
8
0
100
AcDbPolyline
90
27
70
1
43
0.0
10
888.03012811734504
20
223.55784317005379
42
0.19891236737966839
10
888.73723378120417
20
223.26494725378768
10
903.32302021872465
20
223.26489161226206
42
-0.41421356237309503
10
904.32301640394019
20
222.26488779749218
10
904.32298970049987
20
215.26488779754303
42
0.41421356237310025
10
906.32298207093072
20
213.26488016800315
10
922.32298207081453
20
213.26481913156798
42
0.41421356237309503
10
924.32298970035436
20
215.26481150199908
10
924.32316128599132
20
260.2440142122399
42
-0.1993620463225978
10
924.91140198433993
20
261.66067015398318
42
0.41522739926869495
10
924.91143711186965
20
270.86894836122815
42
-0.19936204632261995
10
924.32320722199165
20
272.28560879094465
10
924.32325101259255
20
283.76481150150153
42
0.41421356237307944
10
922.32325864216159
20
285.76481913104141
10
916.32325864220502
20
285.76484201970482
42
-0.41421356237310542
10
914.32326627177417
20
287.76484964924452
10
914.32340741797759
20
324.7647046842269
42
0.4142124450265055
10
912.3234226772696
20
326.76471231372307
10
874.32341504837621
20
326.7650022400494
10
871.32341504839803
20
326.76501368438096
42
0.4142135623730846
10
869.3234074188581
20
324.76502131395
10
869.32334638242264
20
308.7650213140663
42
0.4142135623730846
10
871.32333875285349
20
306.76501368452631
10
872.32333112310903
20
306.76500986977817
42
-0.41421467972058301
10
874.32332349349633
20
304.76499461051549
10
874.32281481560335
20
238.09369896768274
42
0.19891335883002814
10
874.90859585827275
20
236.67947554095232
0
LWPOLYLINE
5
104
100
AcDbEntity
8
0
100
AcDbPolyline
90
4
70
1
43
0.0
10
879.22322430960389
20
276.76498965332945
10
879.22330060586251
20
286.76497256649452
42
-1.0000053390714045
10
882.42330060580821
20
286.76496523666208
10
882.4232243095106
20
276.7649652384859
42
-0.99999999999999989
0
CIRCLE
5
105
100
AcDbEntity
8
0
100
AcDbCircle
10
-914.32300114475856
20
218.26484964974924
30
-9.9182884127913584e-10
40
2.1000000000000001
210
-6.4623485355704799e-27
220
0
230
-1
0
CIRCLE
5
106
100
AcDbEntity
8
0
100
AcDbCircle
10
-910.32329488263201
20
295.26486490829882
30
-1.3420020650301072e-09
40
2.1000000000000001
210
-6.4623485355704799e-27
220
0
230
-1
0
CIRCLE
5
107
100
AcDbEntity
8
0
100
AcDbCircle
10
-874.32337690060399
20
316.76500224012204
30
-1.4397727454706968e-09
40
2.1000000000000001
210
-6.4623485355704799e-27
220
0
230
-1
0
CIRCLE
5
108
100
AcDbEntity
8
0
100
AcDbCircle
10
-910.32339978900518
20
322.76486490809918
30
-1.4670575865238849e-09
40
2.1000000000000001
210
-6.4623485355704799e-27
220
0
230
-1
0
CIRCLE
5
109
100
AcDbEntity
8
0
100
AcDbCircle
10
-894.32337690696556
20
316.76492594718576
30
-1.4397727454706968e-09
40
2.1000000000000001
210
-6.4623485355704799e-27
220
0
230
-1
0
CIRCLE
5
110
100
AcDbEntity
8
0
100
AcDbCircle
10
-914.32306981074817
20
236.26484964961855
30
-1.0737011280070934e-09
40
2.1000000000000001
210
-6.4623485355704799e-27
220
0
230
-1
0
CIRCLE
5
111
100
AcDbEntity
8
0
100
AcDbCircle
10
-896.32295510142785
20
227.22985023558186
30
-1.0333067813707102e-09
40
1.6500000000000625
210
-2.9726803263624207e-25
220
-3.4728350837426049e-20
230
-1
0
CIRCLE
5
112
100
AcDbEntity
8
0
100
AcDbCircle
10
-886.32330063707184
20
296.76493740903402
30
-1.2267374222740731e-09
40
1.5999999999999659
210
2.9706932543541354e-16
220
5.0821976835257637e-21
230
-1
0
CIRCLE
5
113
100
AcDbEntity
8
0
100
AcDbCircle
10
-920.32318425402036
20
266.264826760701
30
-1.2105624748680473e-09
40
1.5999999999999659
210
2.9706932543541354e-16
220
5.0821976835257637e-21
230
-1
0
ENDSEC
0
SECTION
2
OBJECTS
0
DICTIONARY
5
C
100
AcDbDictionary
3
ACAD_GROUP
350
D
3
ACAD_MLINESTYLE
350
17
0
DICTIONARY
5
D
100
AcDbDictionary
0
DICTIONARY
5
1A
330
C
100
AcDbDictionary
0
DICTIONARY
5
17
100
AcDbDictionary
0
ENDSEC
0
EOF
