0
SECTION
2
HEADER
9
$INSUNITS
70
4
9
$ACADVER
1
AC1014
9
$HANDSEED
5
FFFF
0
ENDSEC
0
SECTION
2
TABLES
0
TABLE
2
VPORT
5
8
100
AcDbSymbolTable
0
ENDTAB
0
TABLE
2
LTYPE
5
5
100
AcDbSymbolTable
0
LTYPE
5
14
100
AcDbSymbolTableRecord
100
AcDbLinetypeTableRecord
2
BYBLOCK
70
0
0
LTYPE
5
15
100
AcDbSymbolTableRecord
100
AcDbLinetypeTableRecord
2
BYLAYER
70
0
0
LTYPE
5
16
100
AcDbSymbolTableRecord
100
AcDbLinetypeTableRecord
2
DASHED
70
0
3
Dashed __ __ __ __ __ __ __ __ __ __ __ __ __ _
72
65
73
2
40
0.75
49
0.5
74
0
49
-0.25
74
0
0
ENDTAB
0
TABLE
2
LAYER
5
2
100
AcDbSymbolTable
70
3
0
LAYER
5
50
100
AcDbSymbolTableRecord
100
AcDbLayerTableRecord
2
1
70
0
62
7
6
DASHED
0
LAYER
5
51
100
AcDbSymbolTableRecord
100
AcDbLayerTableRecord
2
0
70
0
62
7
6
CONTINUOUS
0
ENDTAB
0
TABLE
2
STYLE
5
3
100
AcDbSymbolTable
70
1
0
STYLE
5
11
100
AcDbSymbolTableRecord
100
AcDbTextStyleTableRecord
2
STANDARD
70
0
0
ENDTAB
0
TABLE
2
VIEW
5
6
100
AcDbSymbolTable
70
0
0
ENDTAB
0
TABLE
2
UCS
5
7
100
AcDbSymbolTable
70
0
0
ENDTAB
0
TABLE
2
APPID
5
9
100
AcDbSymbolTable
70
2
0
APPID
5
12
100
AcDbSymbolTableRecord
100
AcDbRegAppTableRecord
2
ACAD
70
0
0
ENDTAB
0
TABLE
2
DIMSTYLE
5
A
100
AcDbSymbolTable
70
1
0
ENDTAB
0
TABLE
2
BLOCK_RECORD
5
1
100
AcDbSymbolTable
70
1
0
BLOCK_RECORD
5
1F
100
AcDbSymbolTableRecord
100
AcDbBlockTableRecord
2
*MODEL_SPACE
0
BLOCK_RECORD
5
1B
100
AcDbSymbolTableRecord
100
AcDbBlockTableRecord
2
*PAPER_SPACE
0
ENDTAB
0
ENDSEC
0
SECTION
2
BLOCKS
0
BLOCK
5
20
100
AcDbEntity
100
AcDbBlockBegin
2
*MODEL_SPACE
0
ENDBLK
5
21
100
AcDbEntity
100
AcDbBlockEnd
0
BLOCK
5
1C
100
AcDbEntity
100
AcDbBlockBegin
2
*PAPER_SPACE
0
ENDBLK
5
1D
100
AcDbEntity
100
AcDbBlockEnd
0
ENDSEC
0
SECTION
2
ENTITIES
0
LWPOLYLINE
5
100
100
AcDbEntity
8
0
100
AcDbPolyline
90
20
70
1
43
0.0
10
474.8937287483044
20
280.04699330638425
42
0.40829050760512664
10
474.89372876936341
20
289.14577005965117
42
-0.19628035805050989
10
474.32219889888995
20
290.5455818691446
10
474.3221989221579
20
300.60849302428755
42
0.41421356237310025
10
472.32219892678245
20
302.60849302897032
10
466.25120088975308
20
302.60849304306618
42
-0.41421356237309503
10
464.25120089437758
20
304.60849304769067
10
464.25120094082587
20
324.69638170879034
42
0.41421356237309503
10
462.25120094545025
20
326.6963817134731
10
422.25120094566125
20
326.69638180596314
42
0.4142135623730846
10
420.25120094103676
20
324.69638181052926
10
420.25120085663957
20
288.19638180946725
42
0.41421356237310025
10
422.25120085201519
20
286.19638180478449
10
429.32219888883344
20
286.19638178837636
42
-0.41421356237309503
10
431.322198884209
20
284.1963817837518
10
431.32219883198013
20
261.60849312257943
42
0.41421356237310025
10
433.32219882735569
20
259.60849311789667
10
472.32219882735558
20
259.60849302771885
42
0.41421356237308982
10
474.32219883198007
20
261.6084930231525
10
474.32219887134943
20
278.64718149951398
42
-0.19628035805049743
0
CIRCLE
5
101
100
AcDbEntity
8
0
100
AcDbCircle
10
437.25120087606251
20
296.59638177040341
30
-4.6476990966937137e-06
40
1.6000000000000003
210
-2.9575945132009358e-22
220
-5.3720937778309959e-14
230
1
0
CIRCLE
5
102
100
AcDbEntity
8
0
100
AcDbCircle
10
424.25122382566099
20
322.69642376463167
30
-4.6475818216151765e-06
40
2.1000000000000001
210
-2.9575945132009358e-22
220
-5.3720937778309959e-14
230
1
0
CIRCLE
5
103
100
AcDbEntity
8
0
100
AcDbCircle
10
468.25120080438273
20
265.59638169782124
30
-4.6478383897152753e-06
40
1.6000000000000003
210
-2.9575945132009358e-22
220
-5.3720937778309959e-14
230
1
0
CIRCLE
5
104
100
AcDbEntity
8
0
100
AcDbCircle
10
452.82219887706901
20
281.10849307343352
30
-4.6477686943546814e-06
40
12.000000000000002
210
-2.9575945132009358e-22
220
-5.3720937778309959e-14
230
1
0
CIRCLE
5
105
100
AcDbEntity
8
0
100
AcDbCircle
10
468.25120087606251
20
296.59638169872358
30
-4.6476990966937137e-06
40
1.6000000000000003
210
-2.9575945132009358e-22
220
-5.3720937778309959e-14
230
1
0
CIRCLE
5
106
100
AcDbEntity
8
0
100
AcDbCircle
10
424.25111885338481
20
295.19642376403152
30
-4.6477053849969252e-06
40
2.1000000000000001
210
-2.9575945132009358e-22
220
-5.3720937778309959e-14
230
1
0
CIRCLE
5
107
100
AcDbEntity
8
0
100
AcDbCircle
10
437.25120080438273
20
265.59638176950108
30
-4.6478383985970595e-06
40
1.6000000000000003
210
-2.9575945132009358e-22
220
-5.3720937778309959e-14
230
1
0
CIRCLE
5
108
100
AcDbEntity
8
0
100
AcDbCircle
10
435.251200922539
20
316.69638177558977
30
-4.6476087867119986e-06
40
2.1000000000000001
210
-6.3486016413769851e-16
220
-5.3694999088366948e-14
230
1
0
CIRCLE
5
109
100
AcDbEntity
8
0
100
AcDbCircle
10
455.25120092239314
20
316.69630543213918
30
-4.6476087867119986e-06
40
2.1000000000000001
210
-2.9575945132009358e-22
220
-5.3720937778309959e-14
230
1
0
CIRCLE
5
110
100
AcDbEntity
8
0
100
AcDbCircle
10
470.25120084831553
20
284.59638169374244
30
-4.6477527337884794e-06
40
1.6000000000000003
210
-2.9575945132009358e-22
220
-5.3720937778309959e-14
230
1
0
ENDSEC
0
SECTION
2
OBJECTS
0
DICTIONARY
5
C
100
AcDbDictionary
3
ACAD_GROUP
350
D
3
ACAD_MLINESTYLE
350
17
0
DICTIONARY
5
D
100
AcDbDictionary
0
DICTIONARY
5
1A
330
C
100
AcDbDictionary
0
DICTIONARY
5
17
100
AcDbDictionary
0
ENDSEC
0
EOF
