0
SECTION
2
HEADER
9
$INSUNITS
70
4
9
$ACADVER
1
AC1014
9
$HANDSEED
5
FFFF
0
ENDSEC
0
SECTION
2
TABLES
0
TABLE
2
VPORT
5
8
100
AcDbSymbolTable
0
ENDTAB
0
TABLE
2
LTYPE
5
5
100
AcDbSymbolTable
0
LTYPE
5
14
100
AcDbSymbolTableRecord
100
AcDbLinetypeTableRecord
2
BYBLOCK
70
0
0
LTYPE
5
15
100
AcDbSymbolTableRecord
100
AcDbLinetypeTableRecord
2
BYLAYER
70
0
0
LTYPE
5
16
100
AcDbSymbolTableRecord
100
AcDbLinetypeTableRecord
2
DASHED
70
0
3
Dashed __ __ __ __ __ __ __ __ __ __ __ __ __ _
72
65
73
2
40
0.75
49
0.5
74
0
49
-0.25
74
0
0
ENDTAB
0
TABLE
2
LAYER
5
2
100
AcDbSymbolTable
70
3
0
LAYER
5
50
100
AcDbSymbolTableRecord
100
AcDbLayerTableRecord
2
1
70
0
62
7
6
DASHED
0
LAYER
5
51
100
AcDbSymbolTableRecord
100
AcDbLayerTableRecord
2
0
70
0
62
7
6
CONTINUOUS
0
ENDTAB
0
TABLE
2
STYLE
5
3
100
AcDbSymbolTable
70
1
0
STYLE
5
11
100
AcDbSymbolTableRecord
100
AcDbTextStyleTableRecord
2
STANDARD
70
0
0
ENDTAB
0
TABLE
2
VIEW
5
6
100
AcDbSymbolTable
70
0
0
ENDTAB
0
TABLE
2
UCS
5
7
100
AcDbSymbolTable
70
0
0
ENDTAB
0
TABLE
2
APPID
5
9
100
AcDbSymbolTable
70
2
0
APPID
5
12
100
AcDbSymbolTableRecord
100
AcDbRegAppTableRecord
2
ACAD
70
0
0
ENDTAB
0
TABLE
2
DIMSTYLE
5
A
100
AcDbSymbolTable
70
1
0
ENDTAB
0
TABLE
2
BLOCK_RECORD
5
1
100
AcDbSymbolTable
70
1
0
BLOCK_RECORD
5
1F
100
AcDbSymbolTableRecord
100
AcDbBlockTableRecord
2
*MODEL_SPACE
0
BLOCK_RECORD
5
1B
100
AcDbSymbolTableRecord
100
AcDbBlockTableRecord
2
*PAPER_SPACE
0
ENDTAB
0
ENDSEC
0
SECTION
2
BLOCKS
0
BLOCK
5
20
100
AcDbEntity
100
AcDbBlockBegin
2
*MODEL_SPACE
0
ENDBLK
5
21
100
AcDbEntity
100
AcDbBlockEnd
0
BLOCK
5
1C
100
AcDbEntity
100
AcDbBlockBegin
2
*PAPER_SPACE
0
ENDBLK
5
1D
100
AcDbEntity
100
AcDbBlockEnd
0
ENDSEC
0
SECTION
2
ENTITIES
0
LWPOLYLINE
5
100
100
AcDbEntity
8
0
100
AcDbPolyline
90
21
70
1
43
0.0
10
685.84367784797973
20
321.76602801724704
42
0.41421356237312834
10
680.84367784784263
20
326.7660280171105
10
650.84367784788947
20
326.76602801628769
42
0.41421356237306173
10
645.84367784802669
20
321.7660280161511
10
645.84367784816322
20
316.76612254606323
10
645.84365332210677
20
310.3367602148935
42
0.1395953849523196
10
646.59360454792818
20
307.70290640525718
42
-0.13959441268762673
10
647.34355577378562
20
305.06907166923236
10
647.34355577434008
20
284.76611002839428
42
0.41421356237308876
10
652.34355577447673
20
279.76611002853076
10
667.84354288671364
20
279.76601893954569
42
-0.41421184111657511
10
670.84352525657278
20
276.7660189396795
10
670.84352525717441
20
254.74460600898601
42
0.41212623799876796
10
673.84344896365008
20
251.7660013085582
10
687.8434489636503
20
251.76600130972574
42
0.41421356237310897
10
690.84344896306379
20
254.7660013118826
10
690.84344895876188
20
276.76600131005478
42
0.085152065521321554
10
690.27170479313395
20
280.09885364313971
10
686.13009042685053
20
291.81490941485845
42
-0.085146243927809465
10
685.8442161642148
20
293.48123270219315
10
685.8436778481165
20
316.76602801724761
0
LWPOLYLINE
5
101
100
AcDbEntity
8
0
100
AcDbPolyline
90
16
70
1
43
0.0
10
671.96866691950208
20
313.90115922381932
42
0.20323135713026108
10
669.20853233605601
20
311.14104569843613
42
-0.30561468458070151
10
666.42745075086225
20
309.2660563074005
10
665.25984772494576
20
309.26606076144986
42
-0.30561468458069396
10
662.47878044485833
20
311.14107137038695
42
0.20323135713027479
10
659.71866691947503
20
313.90120595383314
42
-0.30561468458069246
10
657.84367752843934
20
316.6822875390269
10
657.84367816779366
20
316.84989056505265
42
-0.30561468458069396
10
659.71868877673069
20
319.63095784514019
42
0.20323135713026999
10
662.47882336017688
20
322.39107137052349
42
-0.30561468458070451
10
665.25990494537064
20
324.26606076155917
10
666.42750797128747
20
324.26605630750964
42
-0.30561468458069396
10
669.2085752513749
20
322.39104569857261
42
0.20323135713026447
10
671.96868877675809
20
319.63091111512659
42
-0.30561468458069491
10
673.84367816779377
20
316.84982952993278
10
673.84367752843912
20
316.6822265039068
42
-0.30561468458069474
0
LWPOLYLINE
5
102
100
AcDbEntity
8
0
100
AcDbPolyline
90
2
70
1
43
0.0
10
680.87757145897615
20
286.7658670541656
42
0.0016779753283047488
10
680.81045314700532
20
286.7658703231823
42
0.0033559533982654793
0
LWPOLYLINE
5
103
100
AcDbEntity
8
0
100
AcDbPolyline
90
8
70
1
43
0.0
10
675.84346985669072
20
262.24324595844729
10
675.843504362761
20
271.28879480819313
42
-0.59245286758578408
10
678.15120149209395
20
272.55276113775011
42
0.29222137195857822
10
683.53581854874972
20
272.55274166564595
42
-0.59245286776885087
10
685.84350603539178
20
271.28875773021201
10
685.84347152931355
20
262.24320674255301
42
-0.59245297074007708
10
683.5357740139433
20
260.97924065967982
42
0.29222134713852643
10
678.15115734267749
20
260.9792620225947
42
-0.59245286759399396
0
LWPOLYLINE
5
104
100
AcDbEntity
8
0
100
AcDbPolyline
90
2
70
1
43
0.0
10
675.84358128063866
20
276.74233197197367
42
0.0014797437597497758
10
675.84358134484978
20
276.78968420776522
42
0.0023676250615727265
0
LWPOLYLINE
5
105
100
AcDbEntity
8
0
100
AcDbPolyline
90
17
70
1
43
0.0
10
661.71937317434288
20
292.51007724210388
42
0.34754048559235573
10
659.87144853579093
20
292.29394535697116
10
656.81570878914204
20
289.23822892366326
42
0.34754048559235484
10
656.59956280543668
20
287.39030593409416
42
-0.080085053781645668
10
657.20859832836697
20
285.91995618249888
42
0.34754048559234452
10
658.66811109467687
20
284.76611002870368
10
667.84352525635427
20
284.76611002969065
42
-0.27482141294430223
10
674.87193921141352
20
280.58738711463479
42
0.50507777019183842
10
677.26369953834455
20
280.25668144796532
42
-0.14224441341702265
10
679.68991605739234
20
281.63110005652516
42
0.34754048561085554
10
680.84383329585921
20
283.09055662271561
10
680.84394778465753
20
285.44120074703955
42
0.34754048557369543
10
679.69017271825635
20
286.90076971021705
42
-0.36481657302834958
10
675.85366932493685
20
292.07242590202628
42
0.34754048561059769
10
674.7915132272567
20
293.59996080702325
10
670.3963441478727
20
294.93185950571848
42
0.34754048560157591
10
668.66492673921834
20
294.25088063770255
42
-0.42168011803723693
0
CIRCLE
5
106
100
AcDbEntity
8
0
100
AcDbCircle
10
657.84364923790406
20
309.26608905198526
30
-1.3508838492271025e-09
40
1.5999999999999659
210
1.0420632876349178e-16
220
0
230
1
0
CIRCLE
5
107
100
AcDbEntity
8
0
100
AcDbCircle
10
673.84370645832905
20
324.26602801697447
30
-1.3508838492271025e-09
40
1.5999999999999659
210
1.0420632876349178e-16
220
0
230
1
0
CIRCLE
5
108
100
AcDbEntity
8
0
100
AcDbCircle
10
680.84425582394465
20
291.76575605977541
30
-1.3508838492271025e-09
40
1.5999999999999659
210
1.0420632876349178e-16
220
0
230
1
0
CIRCLE
5
109
100
AcDbEntity
8
0
100
AcDbCircle
10
680.84344896267282
20
256.76600130992716
30
-1.3505285778592224e-09
40
1.6500000000000625
210
1.0420632876349177e-16
220
0
230
1
0
CIRCLE
5
110
100
AcDbEntity
8
0
100
AcDbCircle
10
680.84352525657278
20
276.76600130978164
30
-1.3507062135431624e-09
40
1.6500000000000625
210
1.0420632876349177e-16
220
0
230
1
0
CIRCLE
5
111
100
AcDbEntity
8
0
100
AcDbCircle
10
664.34360155059278
20
296.76606425210355
30
-1.3508838492271025e-09
40
1.600000000000108
210
1.0420632876349177e-16
220
0
230
1
0
CIRCLE
5
112
100
AcDbEntity
8
0
100
AcDbCircle
10
652.34355577434019
20
284.76611002853093
30
-1.3508127949535265e-09
40
1.5999999999999659
210
1.0420632876349178e-16
220
0
230
1
0
CIRCLE
5
113
100
AcDbEntity
8
0
100
AcDbCircle
10
657.84370645832894
20
324.2660890520944
30
-1.3509193763638905e-09
40
1.5999999999999659
210
1.0420632876349178e-16
220
0
230
1
0
CIRCLE
5
114
100
AcDbEntity
8
0
100
AcDbCircle
10
673.84364923790395
20
309.26602801686522
30
-1.3508838492271025e-09
40
1.5999999999999659
210
1.0420632876349178e-16
220
0
230
1
0
ENDSEC
0
SECTION
2
OBJECTS
0
DICTIONARY
5
C
100
AcDbDictionary
3
ACAD_GROUP
350
D
3
ACAD_MLINESTYLE
350
17
0
DICTIONARY
5
D
100
AcDbDictionary
0
DICTIONARY
5
1A
330
C
100
AcDbDictionary
0
DICTIONARY
5
17
100
AcDbDictionary
0
ENDSEC
0
EOF
